<?xml version="1.0" encoding="utf-8"?>
<!-- Generator: Adobe Illustrator 25.3.1, SVG Export Plug-In . SVG Version: 6.00 Build 0)  -->
<svg width="25.000000" height="25.000000" viewBox="0 0 25 25" fill="none" xmlns="http://www.w3.org/2000/svg" xmlns:xlink="http://www.w3.org/1999/xlink">
	<desc>
		Created with Pixso.
	</desc>
	<path d="M11.696 1.25219C12.106 0.9174 12.6951 0.9174 13.1051 1.25219L22.4112 8.80986L22.4112 8.81116C22.6598 9.004 22.8033 9.30251 22.7986 9.61711L22.7986 20.7417C22.8013 21.0246 22.6847 21.2954 22.4774 21.4879C22.263 21.6946 22.0056 21.7986 21.704 21.7986L3.09451 21.7986C2.80536 21.8035 2.52643 21.6915 2.32104 21.4879C2.10657 21.2825 1.99997 21.0329 1.99997 20.7417L1.99997 9.61711C1.9971 9.30196 2.1413 9.00348 2.38995 8.80986L11.696 1.25219ZM3.55988 9.86666L3.55988 20.2386L21.2386 20.2386L21.2386 9.86666L12.3993 2.68726L3.55988 9.86666Z" fill-rule="evenodd" fill="#B0B4B9" fill-opacity="1.000000"/>
	<path d="M11.1332 12.6992L11.1332 16.8589C11.1332 17.5777 11.7 18.1588 12.4006 18.1588C13.1094 18.1495 13.6767 17.5677 13.668 16.8589L13.668 12.6992C13.668 11.9829 13.1013 11.4006 12.4006 11.4006C11.6918 11.4099 11.1245 11.9917 11.1332 12.7005L11.1332 12.6992Z" fill-rule="evenodd" fill="#777C83"/>
	<defs/>
</svg>

