<?xml version="1.0" encoding="utf-8"?>
<!-- Generator: Adobe Illustrator 25.3.1, SVG Export Plug-In . SVG Version: 6.00 Build 0)  -->
<svg width="26.000000" height="29.500000" viewBox="0 0 26 29.5" fill="none" xmlns="http://www.w3.org/2000/svg" xmlns:xlink="http://www.w3.org/1999/xlink">
	<desc>
		Created with Pixso.
	</desc>
	<g filter="url(#filter_2_598_dd)">
		<path d="M10.8954 22.6431C10.8954 22.4876 11.361 22.3613 11.9378 22.3604L14.0556 22.3604C14.6349 22.3604 15.1046 22.4869 15.1046 22.6431L15.1046 22.6431L15.1046 23.2546C15.1046 23.3895 15.5082 23.499 16.0085 23.5L17.4534 23.5C18.1282 23.5005 18.7759 23.4286 19.2537 23.3001C19.7315 23.1717 20 22.9974 20 22.8155L20 21.0732C20 20.9263 19.7584 20.7869 19.3403 20.6927L14.4316 19.6349C13.5737 19.4498 12.3481 19.4558 11.5156 19.6491L6.71252 20.6927C6.27466 20.7842 6.01294 20.9239 6 21.0732L6 22.8137C6 23.1927 7.1402 23.5 8.54663 23.5L9.95856 23.5C10.1994 23.5005 10.431 23.475 10.6019 23.4293C10.7729 23.3836 10.869 23.3213 10.869 23.2564L10.8954 23.2564L10.8954 22.6431Z" fill-rule="evenodd" fill="#1979FF" fill-opacity="0.400000"/>
	</g>
	<path d="M13.6052 1.25219C13.1952 0.9174 12.6062 0.9174 12.1961 1.25219L2.89008 8.80986C2.64142 9.00348 2.49719 9.30196 2.50012 9.61711L2.50012 20.7417C2.50012 21.0329 2.60669 21.2825 2.82117 21.4879C3.02655 21.6915 3.30548 21.8035 3.5946 21.7986L22.2042 21.7986C22.5057 21.7986 22.7631 21.6946 22.9776 21.4879C23.1849 21.2954 23.3014 21.0246 23.2986 20.7417L23.2986 9.61711C23.3034 9.30251 23.1599 9.004 22.9113 8.81116L22.9113 8.80986L13.6052 1.25219ZM4.06 20.2386L4.06 9.86666L12.8994 2.68726L21.7388 9.86666L21.7388 20.2386L4.06 20.2386ZM12.9007 18.1588C12.2 18.1588 11.6333 17.5777 11.6333 16.8589L11.6333 12.6992C11.6254 11.9909 12.1923 11.4098 12.9007 11.4006C13.6013 11.4006 14.1681 11.9829 14.1681 12.6992L14.1681 16.8589C14.1768 17.5677 13.6095 18.1495 12.9007 18.1588Z" fill-rule="evenodd" fill="#1979FF" fill-opacity="1.000000"/>
	<defs>
		<filter id="filter_2_598_dd" x="0.000000" y="13.500000" width="26.000000" height="16.000000" filterUnits="userSpaceOnUse" color-interpolation-filters="sRGB">
			<feFlood flood-opacity="0" result="BackgroundImageFix"/>
			<feBlend mode="normal" in="SourceGraphic" in2="BackgroundImageFix" result="shape"/>
			<feGaussianBlur stdDeviation="2" result="effect_layerBlur_1"/>
		</filter>
	</defs>
</svg>
