<?xml version="1.0" encoding="utf-8"?>
<!-- Generator: Adobe Illustrator 25.3.1, SVG Export Plug-In . SVG Version: 6.00 Build 0)  -->
<svg width="25.000000" height="25.000000" viewBox="0 0 25 25" fill="none" xmlns="http://www.w3.org/2000/svg" xmlns:xlink="http://www.w3.org/1999/xlink">
	<desc>
		Created with Pixso.
	</desc>
	<path d="M12.296 12.296C9.45285 12.296 7.14801 9.99117 7.14801 7.14801C7.14801 4.30485 9.45285 2.00002 12.296 2.00002C13.6623 1.99696 14.9735 2.53837 15.9396 3.50446C16.9057 4.47057 17.4471 5.78175 17.444 7.14801C17.444 9.99117 15.1392 12.296 12.296 12.296ZM15.728 7.148C15.728 5.25256 14.1915 3.716 12.296 3.716C10.4006 3.716 8.86401 5.25256 8.86401 7.148C8.86401 9.04344 10.4006 10.58 12.296 10.58C14.1915 10.58 15.728 9.04344 15.728 7.148Z" fill-rule="evenodd" fill="#B0B4B9" fill-opacity="1.000000"/>
	<path d="M11.438 19.302L11.438 16.442C11.438 15.87 11.724 15.584 12.296 15.584L12.296 15.584C12.868 15.584 13.154 15.87 13.154 16.442L13.154 19.302C13.154 19.874 12.868 20.16 12.296 20.16L12.296 20.16C11.724 20.16 11.438 19.874 11.438 19.302Z" fill-rule="evenodd" fill="#777C83"/>
	<path d="M3.14398 22.592C2.51218 22.592 1.99998 22.0798 1.99998 21.448C1.99998 15.7617 6.60966 11.152 12.296 11.152C17.9823 11.152 22.592 15.7617 22.592 21.448C22.592 22.0798 22.0798 22.592 21.448 22.592L3.14398 22.592ZM20.8531 20.876C20.5521 16.3709 16.8111 12.87 12.296 12.868L12.2502 12.868C7.73511 12.87 3.99411 16.3709 3.6931 20.876L20.8531 20.876Z" fill-rule="evenodd" fill="#B0B4B9" fill-opacity="1.000000"/>
	<defs/>
</svg>
